<?xml version="1.0" encoding="UTF-8" standalone="no"?>
<!DOCTYPE svg PUBLIC "-//W3C//DTD SVG 1.1//EN"
 "http://www.w3.org/Graphics/SVG/1.1/DTD/svg11.dtd">
<!-- Generated by graphviz version 5.0.0 (20220707.1540)
 -->
<!-- Title: UmlClassDiagram Pages: 1 -->
<svg width="4112pt" height="1155pt"
 viewBox="0.00 0.00 4112.01 1155.00" xmlns="http://www.w3.org/2000/svg" xmlns:xlink="http://www.w3.org/1999/xlink">
<g id="graph0" class="graph" transform="scale(1 1) rotate(0) translate(4 1151)">
<title>UmlClassDiagram</title>
<polygon fill="white" stroke="transparent" points="-4,4 -4,-1151 4108.01,-1151 4108.01,4 -4,4"/>
<!-- 0 -->
<g id="node1" class="node">
<title>0</title>
<polygon fill="#f2f2f2" stroke="black" points="1261.99,-355.5 1261.99,-782.7 2223.55,-782.7 2223.55,-355.5 1261.99,-355.5"/>
<text text-anchor="middle" x="1742.77" y="-766.1" font-family="Times,serif" font-size="14.00">CampaignInfo</text>
<text text-anchor="middle" x="1742.77" y="-749.3" font-family="Times,serif" font-size="14.00">contracts/CampaignInfo.sol</text>
<polyline fill="none" stroke="black" points="1261.99,-741.1 2223.55,-741.1 "/>
<text text-anchor="start" x="1269.99" y="-724.5" font-family="Times,serif" font-size="14.00">Private:</text>
<text text-anchor="start" x="1269.99" y="-707.7" font-family="Times,serif" font-size="14.00"> &#160;&#160;allowedPlatforms: bytes32[]</text>
<text text-anchor="start" x="1269.99" y="-690.9" font-family="Times,serif" font-size="14.00">Public:</text>
<text text-anchor="start" x="1269.99" y="-674.1" font-family="Times,serif" font-size="14.00"> &#160;&#160;registry: address</text>
<text text-anchor="start" x="1269.99" y="-657.3" font-family="Times,serif" font-size="14.00"> &#160;&#160;creator: address</text>
<text text-anchor="start" x="1269.99" y="-640.5" font-family="Times,serif" font-size="14.00"> &#160;&#160;token: address</text>
<text text-anchor="start" x="1269.99" y="-623.7" font-family="Times,serif" font-size="14.00"> &#160;&#160;launchTime: uint256</text>
<text text-anchor="start" x="1269.99" y="-606.9" font-family="Times,serif" font-size="14.00"> &#160;&#160;deadline: uint256</text>
<text text-anchor="start" x="1269.99" y="-590.1" font-family="Times,serif" font-size="14.00"> &#160;&#160;goal: uint256</text>
<text text-anchor="start" x="1269.99" y="-573.3" font-family="Times,serif" font-size="14.00"> &#160;&#160;treasury: mapping(bytes32=&gt;address)</text>
<text text-anchor="start" x="1269.99" y="-556.5" font-family="Times,serif" font-size="14.00"> &#160;&#160;identifier: string</text>
<polyline fill="none" stroke="black" points="1261.99,-548.3 2223.55,-548.3 "/>
<text text-anchor="start" x="1269.99" y="-531.7" font-family="Times,serif" font-size="14.00">External:</text>
<text text-anchor="start" x="1269.99" y="-514.9" font-family="Times,serif" font-size="14.00"> &#160;&#160;&#160;setPlatformInfo(_platform: bytes32, _treasury: address) &lt;&lt;onlyOwner&gt;&gt;</text>
<text text-anchor="start" x="1269.99" y="-498.1" font-family="Times,serif" font-size="14.00"> &#160;&#160;&#160;updateLaunchTime(_launchTime: uint256) &lt;&lt;onlyOwner&gt;&gt;</text>
<text text-anchor="start" x="1269.99" y="-481.3" font-family="Times,serif" font-size="14.00"> &#160;&#160;&#160;updateDeadline(_deadline: uint256) &lt;&lt;onlyOwner&gt;&gt;</text>
<text text-anchor="start" x="1269.99" y="-464.5" font-family="Times,serif" font-size="14.00"> &#160;&#160;&#160;updateGoal(_goal: uint256) &lt;&lt;onlyOwner&gt;&gt;</text>
<text text-anchor="start" x="1269.99" y="-447.7" font-family="Times,serif" font-size="14.00">Public:</text>
<text text-anchor="start" x="1269.99" y="-430.9" font-family="Times,serif" font-size="14.00"> &#160;&#160;&#160;constructor(_registry: address, _creator: address, _token: address, _launchTime: uint256, _deadline: uint256, _goal: uint256, _identifier: string, _platforms: bytes32[])</text>
<text text-anchor="start" x="1269.99" y="-414.1" font-family="Times,serif" font-size="14.00"> &#160;&#160;&#160;platforms(): bytes32[]</text>
<text text-anchor="start" x="1269.99" y="-397.3" font-family="Times,serif" font-size="14.00"> &#160;&#160;&#160;totalCurrentBalance(): uint256</text>
<text text-anchor="start" x="1269.99" y="-380.5" font-family="Times,serif" font-size="14.00"> &#160;&#160;&#160;totalRaisedBalance(): uint256</text>
<text text-anchor="start" x="1269.99" y="-363.7" font-family="Times,serif" font-size="14.00"> &#160;&#160;&#160;transferOwnership(newOwner: address) &lt;&lt;onlyOwner&gt;&gt;</text>
</g>
<!-- 5 -->
<g id="node4" class="node">
<title>5</title>
<polygon fill="#f2f2f2" stroke="black" points="559.28,-878.5 559.28,-1146.5 916.25,-1146.5 916.25,-878.5 559.28,-878.5"/>
<text text-anchor="middle" x="737.77" y="-1129.9" font-family="Times,serif" font-size="14.00">&lt;&lt;Interface&gt;&gt;</text>
<text text-anchor="middle" x="737.77" y="-1113.1" font-family="Times,serif" font-size="14.00">ICampaignInfo</text>
<text text-anchor="middle" x="737.77" y="-1096.3" font-family="Times,serif" font-size="14.00">contracts/Interface/ICampaignInfo.sol</text>
<polyline fill="none" stroke="black" points="559.28,-1088.1 916.25,-1088.1 "/>
<text text-anchor="start" x="567.28" y="-1071.5" font-family="Times,serif" font-size="14.00">External:</text>
<text text-anchor="start" x="567.28" y="-1054.7" font-family="Times,serif" font-size="14.00"> &#160;&#160;&#160;&#160;totalCurrentBalance(): uint256</text>
<text text-anchor="start" x="567.28" y="-1037.9" font-family="Times,serif" font-size="14.00"> &#160;&#160;&#160;&#160;totalRaisedBalance(): uint256</text>
<text text-anchor="start" x="567.28" y="-1021.1" font-family="Times,serif" font-size="14.00"> &#160;&#160;&#160;&#160;treasury(platform: bytes32): address</text>
<text text-anchor="start" x="567.28" y="-1004.3" font-family="Times,serif" font-size="14.00"> &#160;&#160;&#160;&#160;token(): address</text>
<text text-anchor="start" x="567.28" y="-987.5" font-family="Times,serif" font-size="14.00"> &#160;&#160;&#160;&#160;launchTime(): uint256</text>
<text text-anchor="start" x="567.28" y="-970.7" font-family="Times,serif" font-size="14.00"> &#160;&#160;&#160;&#160;deadline(): uint256</text>
<text text-anchor="start" x="567.28" y="-953.9" font-family="Times,serif" font-size="14.00"> &#160;&#160;&#160;&#160;goal(): uint256</text>
<text text-anchor="start" x="567.28" y="-937.1" font-family="Times,serif" font-size="14.00"> &#160;&#160;&#160;&#160;platforms(): bytes32[]</text>
<text text-anchor="start" x="567.28" y="-920.3" font-family="Times,serif" font-size="14.00"> &#160;&#160;&#160;&#160;creator(): address</text>
<text text-anchor="start" x="567.28" y="-903.5" font-family="Times,serif" font-size="14.00"> &#160;&#160;&#160;&#160;setPlatformInfo(_platformId: bytes32, _treasury: address)</text>
<text text-anchor="start" x="567.28" y="-886.7" font-family="Times,serif" font-size="14.00"> &#160;&#160;&#160;&#160;transferOwnership(newOwner: address)</text>
</g>
<!-- 0&#45;&gt;5 -->
<g id="edge1" class="edge">
<title>0&#45;&gt;5</title>
<path fill="none" stroke="black" stroke-dasharray="5,2" d="M1399.09,-782.71C1351.23,-805.75 1301.68,-826.44 1252.77,-842 1122.57,-883.41 1069.2,-833.51 944.95,-871.5"/>
<polygon fill="none" stroke="black" points="941.33,-861.64 916.4,-881.35 948.18,-881.49 941.33,-861.64"/>
</g>
<!-- 8 -->
<g id="node7" class="node">
<title>8</title>
<polygon fill="#f2f2f2" stroke="black" points="933.85,-928.9 933.85,-1096.1 1189.69,-1096.1 1189.69,-928.9 933.85,-928.9"/>
<text text-anchor="middle" x="1061.77" y="-1079.5" font-family="Times,serif" font-size="14.00">&lt;&lt;Interface&gt;&gt;</text>
<text text-anchor="middle" x="1061.77" y="-1062.7" font-family="Times,serif" font-size="14.00">ICampaignTreasury</text>
<text text-anchor="middle" x="1061.77" y="-1045.9" font-family="Times,serif" font-size="14.00">contracts/Interface/ICampaignTreasury.sol</text>
<polyline fill="none" stroke="black" points="933.85,-1037.7 1189.69,-1037.7 "/>
<text text-anchor="start" x="941.85" y="-1021.1" font-family="Times,serif" font-size="14.00">External:</text>
<text text-anchor="start" x="941.85" y="-1004.3" font-family="Times,serif" font-size="14.00"> &#160;&#160;&#160;&#160;getplatformId(): bytes32</text>
<text text-anchor="start" x="941.85" y="-987.5" font-family="Times,serif" font-size="14.00"> &#160;&#160;&#160;&#160;getplatformFeePercent(): uint256</text>
<text text-anchor="start" x="941.85" y="-970.7" font-family="Times,serif" font-size="14.00"> &#160;&#160;&#160;&#160;getplatformFee(): uint256</text>
<text text-anchor="start" x="941.85" y="-953.9" font-family="Times,serif" font-size="14.00"> &#160;&#160;&#160;&#160;raisedBalance(): uint256</text>
<text text-anchor="start" x="941.85" y="-937.1" font-family="Times,serif" font-size="14.00"> &#160;&#160;&#160;&#160;currentBalance(): uint256</text>
</g>
<!-- 0&#45;&gt;8 -->
<g id="edge2" class="edge">
<title>0&#45;&gt;8</title>
<path fill="none" stroke="black" stroke-dasharray="5,2" d="M1414.74,-782.72C1338.17,-832.35 1260.75,-882.53 1198.02,-923.19"/>
<polygon fill="black" stroke="black" points="1195.75,-920.49 1189.26,-928.86 1199.56,-926.36 1195.75,-920.49"/>
</g>
<!-- 1 -->
<g id="node2" class="node">
<title>1</title>
<polygon fill="#f2f2f2" stroke="black" points="2243.07,-42.5 2243.07,-217.7 3126.47,-217.7 3126.47,-42.5 2243.07,-42.5"/>
<text text-anchor="middle" x="2684.77" y="-201.1" font-family="Times,serif" font-size="14.00">CampaignInfoFactory</text>
<text text-anchor="middle" x="2684.77" y="-184.3" font-family="Times,serif" font-size="14.00">contracts/CampaignInfoFactory.sol</text>
<polyline fill="none" stroke="black" points="2243.07,-176.1 3126.47,-176.1 "/>
<text text-anchor="start" x="2251.07" y="-159.5" font-family="Times,serif" font-size="14.00">Public:</text>
<text text-anchor="start" x="2251.07" y="-142.7" font-family="Times,serif" font-size="14.00"> &#160;&#160;newCampaignInfo: CampaignInfo</text>
<text text-anchor="start" x="2251.07" y="-125.9" font-family="Times,serif" font-size="14.00"> &#160;&#160;registry: address</text>
<polyline fill="none" stroke="black" points="2243.07,-117.7 3126.47,-117.7 "/>
<text text-anchor="start" x="2251.07" y="-101.1" font-family="Times,serif" font-size="14.00">External:</text>
<text text-anchor="start" x="2251.07" y="-84.3" font-family="Times,serif" font-size="14.00"> &#160;&#160;&#160;createCampaign(_creator: address, _token: address, _launchTime: uint256, _deadline: uint256, _goal: uint256, _identifier: string, _platforms: bytes32[])</text>
<text text-anchor="start" x="2251.07" y="-67.5" font-family="Times,serif" font-size="14.00">Public:</text>
<text text-anchor="start" x="2251.07" y="-50.7" font-family="Times,serif" font-size="14.00"> &#160;&#160;&#160;constructor(_registry: address)</text>
</g>
<!-- 1&#45;&gt;0 -->
<g id="edge4" class="edge">
<title>1&#45;&gt;0</title>
<path fill="none" stroke="black" d="M2425.88,-217.77C2361.97,-241.32 2294.23,-268.13 2232.77,-296.2 2196,-312.99 2158.27,-331.49 2120.84,-350.71"/>
<polygon fill="black" stroke="black" points="2119.13,-347.65 2111.85,-355.34 2122.34,-353.87 2119.13,-347.65"/>
</g>
<!-- 6 -->
<g id="node5" class="node">
<title>6</title>
<polygon fill="#f2f2f2" stroke="black" points="2241.32,-502.3 2241.32,-635.9 3128.22,-635.9 3128.22,-502.3 2241.32,-502.3"/>
<text text-anchor="middle" x="2684.77" y="-619.3" font-family="Times,serif" font-size="14.00">&lt;&lt;Interface&gt;&gt;</text>
<text text-anchor="middle" x="2684.77" y="-602.5" font-family="Times,serif" font-size="14.00">ICampaignInfoFactory</text>
<text text-anchor="middle" x="2684.77" y="-585.7" font-family="Times,serif" font-size="14.00">contracts/Interface/ICampaignInfoFactory.sol</text>
<polyline fill="none" stroke="black" points="2241.32,-577.5 3128.22,-577.5 "/>
<text text-anchor="start" x="2249.32" y="-560.9" font-family="Times,serif" font-size="14.00">External:</text>
<text text-anchor="start" x="2249.32" y="-544.1" font-family="Times,serif" font-size="14.00"> &#160;&#160;&#160;&#160;createCampaign(_creator: address, _token: address, _launchTime: uint256, _deadline: uint256, _goal: uint256, _identifier: string, _platforms: bytes32[])</text>
<text text-anchor="start" x="2249.32" y="-527.3" font-family="Times,serif" font-size="14.00">Public:</text>
<text text-anchor="start" x="2249.32" y="-510.5" font-family="Times,serif" font-size="14.00"> &#160;&#160;&#160;&lt;&lt;event&gt;&gt; campaignCreation(identifier: string, campaignInfoAddress: address)</text>
</g>
<!-- 1&#45;&gt;6 -->
<g id="edge3" class="edge">
<title>1&#45;&gt;6</title>
<path fill="none" stroke="black" stroke-dasharray="5,2" d="M2684.77,-217.96C2684.77,-291.3 2684.77,-396.19 2684.77,-472.03"/>
<polygon fill="none" stroke="black" points="2674.27,-472.07 2684.77,-502.07 2695.27,-472.07 2674.27,-472.07"/>
</g>
<!-- 7 -->
<g id="node6" class="node">
<title>7</title>
<polygon fill="#f2f2f2" stroke="black" points="3230.57,-493.9 3230.57,-644.3 3676.97,-644.3 3676.97,-493.9 3230.57,-493.9"/>
<text text-anchor="middle" x="3453.77" y="-627.7" font-family="Times,serif" font-size="14.00">&lt;&lt;Interface&gt;&gt;</text>
<text text-anchor="middle" x="3453.77" y="-610.9" font-family="Times,serif" font-size="14.00">ICampaignRegistry</text>
<text text-anchor="middle" x="3453.77" y="-594.1" font-family="Times,serif" font-size="14.00">contracts/Interface/ICampaignRegistry.sol</text>
<polyline fill="none" stroke="black" points="3230.57,-585.9 3676.97,-585.9 "/>
<text text-anchor="start" x="3238.57" y="-569.3" font-family="Times,serif" font-size="14.00">External:</text>
<text text-anchor="start" x="3238.57" y="-552.5" font-family="Times,serif" font-size="14.00"> &#160;&#160;&#160;&#160;initialize(_factoryAddress: address)</text>
<text text-anchor="start" x="3238.57" y="-535.7" font-family="Times,serif" font-size="14.00"> &#160;&#160;&#160;&#160;getFactoryAddress(): address</text>
<text text-anchor="start" x="3238.57" y="-518.9" font-family="Times,serif" font-size="14.00"> &#160;&#160;&#160;&#160;getCampaignInfoAddress(identifier: string): address</text>
<text text-anchor="start" x="3238.57" y="-502.1" font-family="Times,serif" font-size="14.00"> &#160;&#160;&#160;&#160;setCampaignInfoAddress(_identifier: string, _campaignAddress: address)</text>
</g>
<!-- 1&#45;&gt;7 -->
<g id="edge5" class="edge">
<title>1&#45;&gt;7</title>
<path fill="none" stroke="black" stroke-dasharray="5,2" d="M2970.36,-217.74C3027.2,-239.83 3085.22,-266.02 3136.77,-296.2 3226.21,-348.56 3314.6,-427.21 3375.23,-486.48"/>
<polygon fill="black" stroke="black" points="3372.9,-489.09 3382.48,-493.61 3377.8,-484.1 3372.9,-489.09"/>
</g>
<!-- 2 -->
<g id="node3" class="node">
<title>2</title>
<polygon fill="#f2f2f2" stroke="black" points="3144.41,-0.5 3144.41,-259.7 3763.13,-259.7 3763.13,-0.5 3144.41,-0.5"/>
<text text-anchor="middle" x="3453.77" y="-243.1" font-family="Times,serif" font-size="14.00">CampaignRegistry</text>
<text text-anchor="middle" x="3453.77" y="-226.3" font-family="Times,serif" font-size="14.00">contracts/CampaignRegistry.sol</text>
<polyline fill="none" stroke="black" points="3144.41,-218.1 3763.13,-218.1 "/>
<text text-anchor="start" x="3152.41" y="-201.5" font-family="Times,serif" font-size="14.00">Public:</text>
<text text-anchor="start" x="3152.41" y="-184.7" font-family="Times,serif" font-size="14.00"> &#160;&#160;factoryAddress: address</text>
<text text-anchor="start" x="3152.41" y="-167.9" font-family="Times,serif" font-size="14.00"> &#160;&#160;initialized: bool</text>
<text text-anchor="start" x="3152.41" y="-151.1" font-family="Times,serif" font-size="14.00"> &#160;&#160;campaignIdentifierToAddress: mapping(string=&gt;address)</text>
<polyline fill="none" stroke="black" points="3144.41,-142.9 3763.13,-142.9 "/>
<text text-anchor="start" x="3152.41" y="-126.3" font-family="Times,serif" font-size="14.00">External:</text>
<text text-anchor="start" x="3152.41" y="-109.5" font-family="Times,serif" font-size="14.00"> &#160;&#160;&#160;initialize(_factoryAddress: address) &lt;&lt;onlyOwner&gt;&gt;</text>
<text text-anchor="start" x="3152.41" y="-92.7" font-family="Times,serif" font-size="14.00"> &#160;&#160;&#160;getFactoryAddress(): address &lt;&lt;isInitialized&gt;&gt;</text>
<text text-anchor="start" x="3152.41" y="-75.9" font-family="Times,serif" font-size="14.00"> &#160;&#160;&#160;getCampaignInfoAddress(identifier: string): address &lt;&lt;isInitialized&gt;&gt;</text>
<text text-anchor="start" x="3152.41" y="-59.1" font-family="Times,serif" font-size="14.00"> &#160;&#160;&#160;setCampaignInfoAddress(_identifier: string, _campaignAddress: address) &lt;&lt;isInitialized, onlyFactory&gt;&gt;</text>
<text text-anchor="start" x="3152.41" y="-42.3" font-family="Times,serif" font-size="14.00">Public:</text>
<text text-anchor="start" x="3152.41" y="-25.5" font-family="Times,serif" font-size="14.00"> &#160;&#160;&#160;&lt;&lt;modifier&gt;&gt; onlyFactory()</text>
<text text-anchor="start" x="3152.41" y="-8.7" font-family="Times,serif" font-size="14.00"> &#160;&#160;&#160;&lt;&lt;modifier&gt;&gt; isInitialized()</text>
</g>
<!-- 2&#45;&gt;7 -->
<g id="edge6" class="edge">
<title>2&#45;&gt;7</title>
<path fill="none" stroke="black" stroke-dasharray="5,2" d="M3453.77,-259.85C3453.77,-324.71 3453.77,-402.33 3453.77,-463.45"/>
<polygon fill="none" stroke="black" points="3443.27,-463.76 3453.77,-493.76 3464.27,-463.76 3443.27,-463.76"/>
</g>
<!-- 3 -->
<g id="node8" class="node">
<title>3</title>
<polygon fill="#f2f2f2" stroke="black" points="491.59,-17.3 491.59,-242.9 965.95,-242.9 965.95,-17.3 491.59,-17.3"/>
<text text-anchor="middle" x="728.77" y="-226.3" font-family="Times,serif" font-size="14.00">ModelFactory</text>
<text text-anchor="middle" x="728.77" y="-209.5" font-family="Times,serif" font-size="14.00">contracts/ModelFactory.sol</text>
<polyline fill="none" stroke="black" points="491.59,-201.3 965.95,-201.3 "/>
<text text-anchor="start" x="499.59" y="-184.7" font-family="Times,serif" font-size="14.00">Public:</text>
<text text-anchor="start" x="499.59" y="-167.9" font-family="Times,serif" font-size="14.00"> &#160;&#160;newAllOrNothing: AllOrNothing</text>
<text text-anchor="start" x="499.59" y="-151.1" font-family="Times,serif" font-size="14.00"> &#160;&#160;newKeepWhatsRaised: KeepWhatsRaised</text>
<text text-anchor="start" x="499.59" y="-134.3" font-family="Times,serif" font-size="14.00"> &#160;&#160;bytesToInfoToModel: mapping(bytes32=&gt;mapping(address=&gt;address))</text>
<polyline fill="none" stroke="black" points="491.59,-126.1 965.95,-126.1 "/>
<text text-anchor="start" x="499.59" y="-109.5" font-family="Times,serif" font-size="14.00">External:</text>
<text text-anchor="start" x="499.59" y="-92.7" font-family="Times,serif" font-size="14.00"> &#160;&#160;&#160;getModelAddress(platform: bytes32, info: address): address</text>
<text text-anchor="start" x="499.59" y="-75.9" font-family="Times,serif" font-size="14.00"> &#160;&#160;&#160;createModels(_registry: address, _info: address, _platform: bytes32)</text>
<text text-anchor="start" x="499.59" y="-59.1" font-family="Times,serif" font-size="14.00">Public:</text>
<text text-anchor="start" x="499.59" y="-42.3" font-family="Times,serif" font-size="14.00"> &#160;&#160;&#160;createAllOrNothing(_registry: address, _info: address, _platform: bytes32)</text>
<text text-anchor="start" x="499.59" y="-25.5" font-family="Times,serif" font-size="14.00"> &#160;&#160;&#160;createKeepWhatsRaised(_registry: address, _info: address, _platform: bytes32)</text>
</g>
<!-- 9 -->
<g id="node11" class="node">
<title>9</title>
<polygon fill="#f2f2f2" stroke="black" points="0,-296.7 0,-841.5 825.54,-841.5 825.54,-296.7 0,-296.7"/>
<text text-anchor="middle" x="412.77" y="-824.9" font-family="Times,serif" font-size="14.00">AllOrNothing</text>
<text text-anchor="middle" x="412.77" y="-808.1" font-family="Times,serif" font-size="14.00">contracts/models/AllOrNothing.sol</text>
<polyline fill="none" stroke="black" points="0,-799.9 825.54,-799.9 "/>
<text text-anchor="start" x="8" y="-783.3" font-family="Times,serif" font-size="14.00">Private:</text>
<text text-anchor="start" x="8" y="-766.5" font-family="Times,serif" font-size="14.00"> &#160;&#160;_tokenIdCounter: Counters.Counter</text>
<text text-anchor="start" x="8" y="-749.7" font-family="Times,serif" font-size="14.00">Public:</text>
<text text-anchor="start" x="8" y="-732.9" font-family="Times,serif" font-size="14.00"> &#160;&#160;registry: address</text>
<text text-anchor="start" x="8" y="-716.1" font-family="Times,serif" font-size="14.00"> &#160;&#160;info: address</text>
<text text-anchor="start" x="8" y="-699.3" font-family="Times,serif" font-size="14.00"> &#160;&#160;platform: bytes32</text>
<text text-anchor="start" x="8" y="-682.5" font-family="Times,serif" font-size="14.00"> &#160;&#160;percentDivider: uint256</text>
<text text-anchor="start" x="8" y="-665.7" font-family="Times,serif" font-size="14.00"> &#160;&#160;pledgedAmount: uint256</text>
<text text-anchor="start" x="8" y="-648.9" font-family="Times,serif" font-size="14.00"> &#160;&#160;platformFeePercent: uint256</text>
<text text-anchor="start" x="8" y="-632.1" font-family="Times,serif" font-size="14.00"> &#160;&#160;raisedBalance: uint256</text>
<text text-anchor="start" x="8" y="-615.3" font-family="Times,serif" font-size="14.00"> &#160;&#160;preLaunchPledge: uint256</text>
<text text-anchor="start" x="8" y="-598.5" font-family="Times,serif" font-size="14.00"> &#160;&#160;tokenToPledgeAmount: mapping(uint256=&gt;uint256)</text>
<text text-anchor="start" x="8" y="-581.7" font-family="Times,serif" font-size="14.00"> &#160;&#160;items: mapping(bytes32=&gt;Item)</text>
<text text-anchor="start" x="8" y="-564.9" font-family="Times,serif" font-size="14.00"> &#160;&#160;rewards: mapping(bytes32=&gt;Reward)</text>
<polyline fill="none" stroke="black" points="0,-556.7 825.54,-556.7 "/>
<text text-anchor="start" x="8" y="-540.1" font-family="Times,serif" font-size="14.00">External:</text>
<text text-anchor="start" x="8" y="-523.3" font-family="Times,serif" font-size="14.00"> &#160;&#160;&#160;addItem(item: bytes32, description: string)</text>
<text text-anchor="start" x="8" y="-506.5" font-family="Times,serif" font-size="14.00"> &#160;&#160;&#160;addReward(name: bytes32, rewardValue: uint256, isRewardTier: bool, itemIds: bytes32[], itemQuantity: uint256[])</text>
<text text-anchor="start" x="8" y="-489.7" font-family="Times,serif" font-size="14.00"> &#160;&#160;&#160;pledge(backer: address, reward: bytes32[], amount: uint256)</text>
<text text-anchor="start" x="8" y="-472.9" font-family="Times,serif" font-size="14.00"> &#160;&#160;&#160;collect()</text>
<text text-anchor="start" x="8" y="-456.1" font-family="Times,serif" font-size="14.00"> &#160;&#160;&#160;claimRefund(tokenId: uint256)</text>
<text text-anchor="start" x="8" y="-439.3" font-family="Times,serif" font-size="14.00"> &#160;&#160;&#160;getplatformId(): bytes32</text>
<text text-anchor="start" x="8" y="-422.5" font-family="Times,serif" font-size="14.00"> &#160;&#160;&#160;getplatformFeePercent(): uint256</text>
<text text-anchor="start" x="8" y="-405.7" font-family="Times,serif" font-size="14.00"> &#160;&#160;&#160;getplatformFee(): uint256</text>
<text text-anchor="start" x="8" y="-388.9" font-family="Times,serif" font-size="14.00"> &#160;&#160;&#160;setplatformFeePercent(_platformFeePercent: uint256)</text>
<text text-anchor="start" x="8" y="-372.1" font-family="Times,serif" font-size="14.00">Public:</text>
<text text-anchor="start" x="8" y="-355.3" font-family="Times,serif" font-size="14.00"> &#160;&#160;&#160;&lt;&lt;event&gt;&gt; receipt(backer: address, reward: bytes32, pledgeAmount: uint256, tokenId: uint256, isPreLaunchPledge: bool, rewards: bytes32[])</text>
<text text-anchor="start" x="8" y="-338.5" font-family="Times,serif" font-size="14.00"> &#160;&#160;&#160;constructor(_registry: address, _info: address, _platform: bytes32)</text>
<text text-anchor="start" x="8" y="-321.7" font-family="Times,serif" font-size="14.00"> &#160;&#160;&#160;supportsInterface(interfaceId: bytes4): bool</text>
<text text-anchor="start" x="8" y="-304.9" font-family="Times,serif" font-size="14.00"> &#160;&#160;&#160;currentBalance(): uint256</text>
</g>
<!-- 3&#45;&gt;9 -->
<g id="edge7" class="edge">
<title>3&#45;&gt;9</title>
<path fill="none" stroke="black" d="M647.8,-243.07C637.45,-257.39 626.51,-272.52 615.24,-288.1"/>
<polygon fill="black" stroke="black" points="612.34,-286.14 609.32,-296.29 618.01,-290.24 612.34,-286.14"/>
</g>
<!-- 12 -->
<g id="node12" class="node">
<title>12</title>
<polygon fill="#f2f2f2" stroke="black" points="843.51,-397.5 843.51,-740.7 1244.03,-740.7 1244.03,-397.5 843.51,-397.5"/>
<text text-anchor="middle" x="1043.77" y="-724.1" font-family="Times,serif" font-size="14.00">KeepWhatsRaised</text>
<text text-anchor="middle" x="1043.77" y="-707.3" font-family="Times,serif" font-size="14.00">contracts/models/KeepWhatsRaised.sol</text>
<polyline fill="none" stroke="black" points="843.51,-699.1 1244.03,-699.1 "/>
<text text-anchor="start" x="851.51" y="-682.5" font-family="Times,serif" font-size="14.00">Public:</text>
<text text-anchor="start" x="851.51" y="-665.7" font-family="Times,serif" font-size="14.00"> &#160;&#160;registry: address</text>
<text text-anchor="start" x="851.51" y="-648.9" font-family="Times,serif" font-size="14.00"> &#160;&#160;info: address</text>
<text text-anchor="start" x="851.51" y="-632.1" font-family="Times,serif" font-size="14.00"> &#160;&#160;platform: bytes32</text>
<text text-anchor="start" x="851.51" y="-615.3" font-family="Times,serif" font-size="14.00"> &#160;&#160;percentDivider: uint256</text>
<text text-anchor="start" x="851.51" y="-598.5" font-family="Times,serif" font-size="14.00"> &#160;&#160;pledgedAmount: uint256</text>
<text text-anchor="start" x="851.51" y="-581.7" font-family="Times,serif" font-size="14.00"> &#160;&#160;platformFeePercent: uint256</text>
<text text-anchor="start" x="851.51" y="-564.9" font-family="Times,serif" font-size="14.00"> &#160;&#160;raisedBalance: uint256</text>
<polyline fill="none" stroke="black" points="843.51,-556.7 1244.03,-556.7 "/>
<text text-anchor="start" x="851.51" y="-540.1" font-family="Times,serif" font-size="14.00">External:</text>
<text text-anchor="start" x="851.51" y="-523.3" font-family="Times,serif" font-size="14.00"> &#160;&#160;&#160;contribute(contributor: address, amount: uint256)</text>
<text text-anchor="start" x="851.51" y="-506.5" font-family="Times,serif" font-size="14.00"> &#160;&#160;&#160;collect()</text>
<text text-anchor="start" x="851.51" y="-489.7" font-family="Times,serif" font-size="14.00"> &#160;&#160;&#160;getplatformId(): bytes32</text>
<text text-anchor="start" x="851.51" y="-472.9" font-family="Times,serif" font-size="14.00"> &#160;&#160;&#160;getplatformFeePercent(): uint256</text>
<text text-anchor="start" x="851.51" y="-456.1" font-family="Times,serif" font-size="14.00"> &#160;&#160;&#160;getplatformFee(): uint256</text>
<text text-anchor="start" x="851.51" y="-439.3" font-family="Times,serif" font-size="14.00">Public:</text>
<text text-anchor="start" x="851.51" y="-422.5" font-family="Times,serif" font-size="14.00"> &#160;&#160;&#160;constructor(_registry: address, _info: address, _platform: bytes32)</text>
<text text-anchor="start" x="851.51" y="-405.7" font-family="Times,serif" font-size="14.00"> &#160;&#160;&#160;currentBalance(): uint256</text>
</g>
<!-- 3&#45;&gt;12 -->
<g id="edge8" class="edge">
<title>3&#45;&gt;12</title>
<path fill="none" stroke="black" d="M809.48,-243.07C841.51,-287.51 879.15,-339.73 914.78,-389.15"/>
<polygon fill="black" stroke="black" points="912.02,-391.31 920.71,-397.38 917.7,-387.22 912.02,-391.31"/>
</g>
<!-- 10 -->
<g id="node9" class="node">
<title>10</title>
<polygon fill="#f2f2f2" stroke="black" points="53.2,-970.9 53.2,-1054.1 266.34,-1054.1 266.34,-970.9 53.2,-970.9"/>
<text text-anchor="middle" x="159.77" y="-1037.5" font-family="Times,serif" font-size="14.00">&lt;&lt;Struct&gt;&gt;</text>
<text text-anchor="middle" x="159.77" y="-1020.7" font-family="Times,serif" font-size="14.00">Item</text>
<text text-anchor="middle" x="159.77" y="-1003.9" font-family="Times,serif" font-size="14.00">contracts/models/AllOrNothing.sol</text>
<polyline fill="none" stroke="black" points="53.2,-995.7 266.34,-995.7 "/>
<text text-anchor="start" x="61.2" y="-979.1" font-family="Times,serif" font-size="14.00">description: string</text>
</g>
<!-- 10&#45;&gt;9 -->
<g id="edge9" class="edge">
<title>10&#45;&gt;9</title>
<path fill="none" stroke="black" d="M187.17,-970.86C205.23,-941.5 230.43,-898.94 257.47,-852.41"/>
<polygon fill="black" stroke="black" points="257.61,-852.17 257.16,-844.97 263.63,-841.79 264.08,-848.99 257.61,-852.17"/>
</g>
<!-- 11 -->
<g id="node10" class="node">
<title>11</title>
<polygon fill="#f2f2f2" stroke="black" points="283.92,-937.3 283.92,-1087.7 541.62,-1087.7 541.62,-937.3 283.92,-937.3"/>
<text text-anchor="middle" x="412.77" y="-1071.1" font-family="Times,serif" font-size="14.00">&lt;&lt;Struct&gt;&gt;</text>
<text text-anchor="middle" x="412.77" y="-1054.3" font-family="Times,serif" font-size="14.00">Reward</text>
<text text-anchor="middle" x="412.77" y="-1037.5" font-family="Times,serif" font-size="14.00">contracts/models/AllOrNothing.sol</text>
<polyline fill="none" stroke="black" points="283.92,-1029.3 541.62,-1029.3 "/>
<text text-anchor="start" x="291.92" y="-1012.7" font-family="Times,serif" font-size="14.00">rewardValue: uint256</text>
<text text-anchor="start" x="291.92" y="-995.9" font-family="Times,serif" font-size="14.00">isRewardTier: bool</text>
<text text-anchor="start" x="291.92" y="-979.1" font-family="Times,serif" font-size="14.00">rewardDescription: string</text>
<text text-anchor="start" x="291.92" y="-962.3" font-family="Times,serif" font-size="14.00">itemId: bytes32[]</text>
<text text-anchor="start" x="291.92" y="-945.5" font-family="Times,serif" font-size="14.00">itemQuantity: mapping(bytes32=&gt;uint256)</text>
</g>
<!-- 11&#45;&gt;9 -->
<g id="edge10" class="edge">
<title>11&#45;&gt;9</title>
<path fill="none" stroke="black" d="M417.97,-937.15C418.59,-912.87 419.02,-884.28 419.27,-853.95"/>
<polygon fill="black" stroke="black" points="419.27,-853.79 415.31,-847.76 419.36,-841.79 423.31,-847.82 419.27,-853.79"/>
</g>
<!-- 9&#45;&gt;5 -->
<g id="edge14" class="edge">
<title>9&#45;&gt;5</title>
<path fill="none" stroke="black" stroke-dasharray="5,2" d="M612.81,-841.79C619.95,-851.48 626.98,-861.03 633.85,-870.36"/>
<polygon fill="black" stroke="black" points="631.09,-872.52 639.84,-878.5 636.73,-868.37 631.09,-872.52"/>
</g>
<!-- 9&#45;&gt;8 -->
<g id="edge11" class="edge">
<title>9&#45;&gt;8</title>
<path fill="none" stroke="black" stroke-dasharray="5,2" d="M825.75,-837.31C828.76,-838.89 831.77,-840.45 834.77,-842 873.05,-861.76 888.65,-854.52 924.77,-878 938.52,-886.94 952.06,-897.39 964.96,-908.45"/>
<polygon fill="none" stroke="black" points="958.13,-916.43 987.4,-928.8 972.23,-900.87 958.13,-916.43"/>
</g>
<!-- 9&#45;&gt;10 -->
<g id="edge12" class="edge">
<title>9&#45;&gt;10</title>
<path fill="none" stroke="black" d="M250.46,-841.79C224.34,-887.88 200.43,-930.83 183.7,-961.99"/>
<polygon fill="black" stroke="black" points="180.58,-960.39 178.95,-970.86 186.75,-963.69 180.58,-960.39"/>
</g>
<!-- 9&#45;&gt;11 -->
<g id="edge13" class="edge">
<title>9&#45;&gt;11</title>
<path fill="none" stroke="black" d="M406.18,-841.79C406.38,-872.4 406.76,-901.62 407.32,-926.92"/>
<polygon fill="black" stroke="black" points="403.83,-927.24 407.57,-937.15 410.83,-927.07 403.83,-927.24"/>
</g>
<!-- 12&#45;&gt;5 -->
<g id="edge16" class="edge">
<title>12&#45;&gt;5</title>
<path fill="none" stroke="black" stroke-dasharray="5,2" d="M925.46,-740.76C895.88,-783.43 864.48,-828.73 835.99,-869.82"/>
<polygon fill="black" stroke="black" points="832.96,-868.04 830.14,-878.25 838.72,-872.03 832.96,-868.04"/>
</g>
<!-- 12&#45;&gt;8 -->
<g id="edge15" class="edge">
<title>12&#45;&gt;8</title>
<path fill="none" stroke="black" stroke-dasharray="5,2" d="M1050.73,-740.76C1052.89,-793.69 1055.21,-850.68 1057.17,-898.66"/>
<polygon fill="none" stroke="black" points="1046.68,-899.2 1058.39,-928.75 1067.66,-898.34 1046.68,-899.2"/>
</g>
<!-- 4 -->
<g id="node13" class="node">
<title>4</title>
<polygon fill="#f2f2f2" stroke="black" points="3781.52,-80.1 3781.52,-180.1 4104.01,-180.1 4104.01,-80.1 3781.52,-80.1"/>
<text text-anchor="middle" x="3942.77" y="-163.5" font-family="Times,serif" font-size="14.00">TestUSD</text>
<text text-anchor="middle" x="3942.77" y="-146.7" font-family="Times,serif" font-size="14.00">contracts/testUSD.sol</text>
<polyline fill="none" stroke="black" points="3781.52,-138.5 4104.01,-138.5 "/>
<text text-anchor="start" x="3789.52" y="-121.9" font-family="Times,serif" font-size="14.00">Public:</text>
<text text-anchor="start" x="3789.52" y="-105.1" font-family="Times,serif" font-size="14.00"> &#160;&#160;&#160;constructor()</text>
<text text-anchor="start" x="3789.52" y="-88.3" font-family="Times,serif" font-size="14.00"> &#160;&#160;&#160;mint(to: address, amount: uint256) &lt;&lt;onlyOwner&gt;&gt;</text>
</g>
</g>
</svg>
